<?xml version="1.0" encoding="UTF-8"?>
<svg id="Camada_2" data-name="Camada 2" xmlns="http://www.w3.org/2000/svg" viewBox="0 0 911.94 942.01">
  <defs>
    <style>
      .cls-1 {
        fill: #fff;
      }
    </style>
  </defs>
  <g id="Camada_1_cópia" data-name="Camada 1 cópia">
    <path class="cls-1" d="M906.36,445.46c-98.88-42.49-207.24-75.53-322.47-101.72,2.15-108.39-9.4-220.71-33.05-336.52-.72-7.35-10.17-9.87-14.45-3.86-80.93,95.88-149.31,188.41-196.39,275.26-67.04-35.48-189.14-56.51-330.26-72.56-7.21-1.58-12.53,6.62-8.14,12.55,64.67,112.92,131.11,209.1,201.09,271.84-68.18,79.07-124.27,177.81-171.06,291.67-3.73,6.37,2.42,13.96,9.42,11.62,126.38-29.73,238.42-63.89,320.68-107.25,46.89,91.37,132.35,172.95,224.54,252.82,4.9,5.52,14.02,2.01,13.96-5.37,8.85-124.83,9.41-239.43-2.91-338.12,101.78-19.69,205.26-68.3,309.83-135.42,6.76-2.96,6.24-12.72-.8-14.94ZM562.02,586.84l-101.53,5.06c-.29.01-.57.12-.8.31l-78.72,64.32c-7.08,5.78-17.74,2.93-20.99-5.6l-36.18-94.99c-.1-.27-.29-.51-.54-.66l-85.49-54.99c-7.68-4.94-8.27-15.96-1.16-21.69l79.16-63.77c.23-.18.39-.43.46-.72l25.88-98.3c2.33-8.84,12.62-12.8,20.27-7.8l85.11,55.58c.24.16.53.24.83.22l101.49-5.76c9.12-.52,16.07,8.05,13.69,16.87l-26.56,98.12c-.08.28-.06.58.05.85l36.84,94.74c3.31,8.52-2.69,17.77-11.82,18.23Z"/>
  </g>
</svg>