<?xml version="1.0" encoding="UTF-8"?>
<svg id="Camada_2" data-name="Camada 2" xmlns="http://www.w3.org/2000/svg" viewBox="0 0 1186.28 241.22">
  <defs>
    <style>
      .cls-1 {
        fill: #fff;
      }
    </style>
  </defs>
  <g id="Camada_1-2" data-name="Camada 1">
    <g>
      <path class="cls-1" d="M72.96,235.88H27.68L70.45,35.85l46.55-6.29-14.78,69.82h1.89c11.74,0,22.22-5.35,31.45-16.04,9.22-10.69,13.84-22.33,13.84-34.91,0-10.48-3.62-18.76-10.85-24.85-7.23-6.08-17.45-9.12-30.66-9.12-22.01,0-40.62,7.03-55.82,21.07-15.2,14.05-22.8,32.5-22.8,55.35,0,3.99.26,7.44.79,10.38.52,2.94,1.42,5.77,2.67,8.49.42.84.68,1.42.79,1.73.1.31.16.58.16.79-11.32,0-19.76-2.41-25.32-7.23-5.56-4.82-8.33-12.05-8.33-21.7,0-11.32,3.62-22.43,10.85-33.34,7.23-10.9,17.24-20.44,30.04-28.62,10.48-6.92,22.06-12.21,34.75-15.88C88.32,1.84,101.16,0,114.16,0c20.54,0,36.85,4.61,48.9,13.84,12.05,9.23,18.08,21.28,18.08,36.17,0,9.86-2.83,19.29-8.49,28.31-5.66,9.02-13.32,16.25-22.96,21.7,11.95,2.31,21.12,7.92,27.52,16.83,6.39,8.91,9.59,20.18,9.59,33.81,0,9.86-1.47,20.24-4.4,31.14-2.94,10.91-7.03,20.55-12.27,28.93-6.29,10.06-13.84,17.67-22.64,22.8-8.81,5.13-18.66,7.71-29.56,7.71-9.86,0-17.51-2-22.96-5.98-5.46-3.98-8.18-9.75-8.18-17.3,0-2.52.31-5.29.94-8.33.63-3.04,1.68-6.34,3.14-9.91,3.98,3.99,7.6,6.87,10.85,8.65,3.25,1.78,6.65,2.67,10.22,2.67,9.43,0,16.98-5.45,22.64-16.35,5.66-10.9,8.49-24.32,8.49-40.26,0-13.21-2.52-23.17-7.55-29.88-5.03-6.71-12.48-10.06-22.33-10.06-1.47,0-3.62.11-6.45.31-2.83.21-5.5.42-8.02.63l-25.79,120.45Z"/>
      <path class="cls-1" d="M300.03,93.09v2.2l3.46-16.67h45.29l-22.64,106.93c-.42,1.89-.74,3.62-.94,5.19-.21,1.57-.31,3.2-.31,4.88,0,4.61,1.05,8.02,3.15,10.22,2.09,2.2,5.35,3.3,9.75,3.3,5.45,0,10.38-2.57,14.78-7.71,4.4-5.14,7.96-12.42,10.69-21.86h13.21c-6.71,19.29-15.41,33.81-26.1,43.56s-23.07,14.62-37.11,14.62c-9.02,0-16.2-2.52-21.54-7.55s-8.44-12.16-9.28-21.39c-6.5,9.65-13.68,16.88-21.54,21.7-7.86,4.83-16.3,7.23-25.32,7.23-13,0-23.22-4.4-30.66-13.21-7.44-8.81-11.17-21.28-11.17-37.43,0-11.74,1.78-24,5.35-36.8,3.56-12.79,8.49-24.42,14.78-34.91,7.75-12.37,16.77-21.86,27.05-28.46,10.27-6.6,21.49-9.91,33.65-9.91,8.18,0,14.47,1.42,18.87,4.25,4.4,2.83,6.6,6.76,6.6,11.79ZM297.2,108.5c0-3.15-1.15-5.92-3.46-8.33-2.31-2.41-5.46-3.62-9.44-3.62-11.53,0-21.75,9.65-30.66,28.93-8.92,19.29-13.37,38.37-13.37,57.24,0,8.18,1.15,14.31,3.46,18.4,2.3,4.09,6.39,6.13,12.27,6.13,5.45,0,10.74-2.62,15.88-7.86,5.13-5.24,8.54-11.84,10.22-19.81l15.1-71.08Z"/>
      <path class="cls-1" d="M415.76,207.26c5.45,0,10.32-2.36,14.62-7.08,4.29-4.72,7.81-11.58,10.54-20.6l21.39-100.96h45.29l-22.64,106.93c-.42,1.89-.74,3.62-.94,5.19-.21,1.57-.31,3.2-.31,4.88,0,4.2.99,7.18,2.99,8.96,1.99,1.78,5.29,2.67,9.91,2.67,5.45,0,10.38-2.41,14.78-7.23,4.4-4.82,7.96-11.64,10.69-20.44h13.21c-6.71,19.29-15.41,33.81-26.1,43.56s-23.07,14.62-37.11,14.62c-9.02,0-16.25-2.56-21.7-7.71-5.46-5.13-8.6-12.53-9.44-22.17-6.08,10.06-12.95,17.56-20.6,22.49-7.66,4.93-16.3,7.39-25.95,7.39-10.49,0-18.71-3.3-24.69-9.91-5.97-6.6-8.96-15.88-8.96-27.83,0-2.72.21-5.82.63-9.28.42-3.46,1.05-7.18,1.89-11.17l21.39-100.96h45.29l-22.64,106.93c-.42,1.68-.68,3.2-.79,4.56-.11,1.37-.16,2.78-.16,4.25,0,4.2.79,7.39,2.36,9.59,1.57,2.2,3.93,3.3,7.08,3.3Z"/>
      <path class="cls-1" d="M598.49,202.22c0-3.77.47-8.49,1.42-14.15.94-5.66,2.88-14.67,5.82-27.05,2.93-11.95,4.82-20.55,5.66-25.79.84-5.24,1.26-9.64,1.26-13.21,0-5.24-.94-9.22-2.83-11.95-1.89-2.72-4.72-4.09-8.49-4.09-5.03,0-9.7,2.57-14,7.71-4.3,5.14-7.81,12.22-10.54,21.23l-21.39,100.96h-45.29l33.34-157.25h45.29l-3.46,16.35c5.24-5.87,10.9-10.27,16.98-13.21,6.08-2.93,12.68-4.4,19.81-4.4,11.11,0,19.71,3.04,25.79,9.12,6.08,6.08,9.12,14.89,9.12,26.42,0,4.83-.58,10.54-1.73,17.14-1.16,6.6-3.41,16.72-6.76,30.35-2.73,10.69-4.51,18.24-5.35,22.64-.84,4.4-1.26,8.07-1.26,11.01,0,4.4,1.05,7.71,3.14,9.91,2.09,2.2,5.24,3.3,9.44,3.3,5.24,0,9.75-1.78,13.52-5.35,3.77-3.56,8.07-11.01,12.89-22.33h13.21c-6.71,19.5-14.84,34.07-24.37,43.72-9.54,9.65-20.91,14.47-34.12,14.47-11.75,0-20.87-3.19-27.36-9.59-6.5-6.39-9.75-15.04-9.75-25.95Z"/>
      <path class="cls-1" d="M678.37,200.02c0-2.72.21-5.82.63-9.28.42-3.46,1.05-7.18,1.89-11.17l21.39-100.96h45.29l-22.64,106.93c-.42,1.89-.74,3.62-.94,5.19-.21,1.57-.31,3.2-.31,4.88,0,4.2.99,7.18,2.99,8.96,1.99,1.78,5.29,2.67,9.91,2.67,5.87,0,11.42-2.56,16.67-7.71,5.24-5.13,9.12-11.79,11.64-19.97h13.21c-6.71,19.08-15.72,33.55-27.05,43.4-11.32,9.86-24.32,14.78-39,14.78-10.49,0-18.71-3.3-24.69-9.91s-8.96-15.88-8.96-27.83ZM758.56,36.8c0,6.92-2.47,12.79-7.39,17.61-4.93,4.83-10.85,7.23-17.77,7.23s-12.79-2.41-17.61-7.23c-4.83-4.82-7.23-10.69-7.23-17.61s2.41-12.84,7.23-17.77c4.82-4.92,10.69-7.39,17.61-7.39s12.84,2.47,17.77,7.39c4.92,4.93,7.39,10.85,7.39,17.77Z"/>
      <path class="cls-1" d="M762.34,200.02c0-2.72.21-5.82.63-9.28.42-3.46,1.05-7.18,1.89-11.17l33.65-157.57,46.55-6.29-36.17,169.83c-.42,1.89-.74,3.62-.94,5.19-.21,1.57-.31,3.2-.31,4.88,0,4.2.99,7.18,2.99,8.96,1.99,1.78,5.29,2.67,9.91,2.67,5.87,0,11.42-2.56,16.67-7.71,5.24-5.13,9.12-11.79,11.64-19.97h13.21c-6.71,19.08-15.72,33.55-27.05,43.4-11.32,9.86-24.32,14.78-39,14.78-10.49,0-18.71-3.3-24.69-9.91s-8.96-15.88-8.96-27.83Z"/>
      <path class="cls-1" d="M925.25,202.22c0-3.77.47-8.49,1.42-14.15.94-5.66,2.88-14.67,5.82-27.05,2.93-11.95,4.82-20.55,5.66-25.79.84-5.24,1.26-9.64,1.26-13.21,0-5.24-1-9.22-2.99-11.95-2-2.72-4.88-4.09-8.65-4.09-5.03,0-9.91,2.99-14.62,8.96s-7.81,12.22-9.28,18.71l-21.7,102.21h-45.29l45.6-213.86,46.55-6.29-16.98,79.25c5.24-5.87,10.9-10.27,16.98-13.21,6.08-2.93,12.68-4.4,19.81-4.4,11.11,0,19.71,3.04,25.79,9.12,6.08,6.08,9.12,14.89,9.12,26.42,0,4.83-.58,10.54-1.73,17.14-1.16,6.6-3.41,16.72-6.76,30.35-2.73,10.69-4.51,18.24-5.35,22.64-.84,4.4-1.26,8.07-1.26,11.01,0,4.4,1.05,7.71,3.14,9.91,2.09,2.2,5.24,3.3,9.44,3.3,5.24,0,9.75-1.78,13.52-5.35,3.77-3.56,8.07-11.01,12.89-22.33h13.21c-6.71,19.5-14.84,34.07-24.37,43.72-9.54,9.65-20.91,14.47-34.12,14.47-11.75,0-20.87-3.19-27.36-9.59-6.5-6.39-9.75-15.04-9.75-25.95Z"/>
      <path class="cls-1" d="M1109.86,93.09v2.2l3.46-16.67h45.29l-22.64,106.93c-.42,1.89-.74,3.62-.94,5.19-.21,1.57-.31,3.2-.31,4.88,0,4.61,1.05,8.02,3.15,10.22,2.09,2.2,5.35,3.3,9.75,3.3,5.45,0,10.38-2.57,14.78-7.71,4.4-5.14,7.97-12.42,10.69-21.86h13.21c-6.71,19.29-15.41,33.81-26.1,43.56s-23.07,14.62-37.11,14.62c-9.02,0-16.2-2.52-21.54-7.55s-8.44-12.16-9.28-21.39c-6.5,9.65-13.68,16.88-21.54,21.7-7.86,4.83-16.3,7.23-25.32,7.23-13,0-23.22-4.4-30.66-13.21-7.44-8.81-11.17-21.28-11.17-37.43,0-11.74,1.78-24,5.35-36.8,3.56-12.79,8.49-24.42,14.78-34.91,7.75-12.37,16.77-21.86,27.05-28.46,10.27-6.6,21.49-9.91,33.65-9.91,8.18,0,14.47,1.42,18.87,4.25,4.4,2.83,6.6,6.76,6.6,11.79ZM1107.03,108.5c0-3.15-1.16-5.92-3.46-8.33-2.31-2.41-5.45-3.62-9.43-3.62-11.53,0-21.75,9.65-30.66,28.93-8.91,19.29-13.37,38.37-13.37,57.24,0,8.18,1.15,14.31,3.46,18.4,2.3,4.09,6.39,6.13,12.27,6.13,5.45,0,10.74-2.62,15.88-7.86,5.13-5.24,8.54-11.84,10.22-19.81l15.1-71.08Z"/>
    </g>
  </g>
</svg>