<?xml version="1.0" encoding="UTF-8"?>
<svg id="Camada_2" data-name="Camada 2" xmlns="http://www.w3.org/2000/svg" viewBox="0 0 265.18 265.18">
  <defs>
    <style>
      .cls-1 {
        fill: #fff;
      }
    </style>
  </defs>
  <g id="Camada_1-2" data-name="Camada 1">
    <g>
      <path class="cls-1" d="M262.74,44.94c0-23.21-18.82-42.03-42.03-42.03C162.06-.97,103.42-.97,44.77,2.91,21.56,2.91,2.74,21.73,2.74,44.94c-3.56,60.12-3.75,118.84,0,175.93,0,23.21,18.82,42.03,42.03,42.03,60.41,2.94,119.17,3.13,175.93,0,23.21,0,42.03-18.82,42.03-42.03,3.09-61.47,3.42-120.42,0-175.93ZM248.21,127.48c-23.99,15.4-47.73,26.55-71.08,31.07,2.83,22.64,2.7,48.93.67,77.57.01,1.69-2.08,2.5-3.2,1.23-21.15-18.33-40.76-37.04-51.51-58-18.87,9.95-44.58,17.79-73.57,24.61-1.61.54-3.02-1.2-2.16-2.67,10.73-26.12,23.6-48.78,39.25-66.92-16.06-14.39-31.3-36.46-46.14-62.37-1.01-1.36.21-3.24,1.87-2.88,32.37,3.68,60.39,8.51,75.77,16.65,10.8-19.92,26.49-41.15,45.06-63.15.98-1.38,3.15-.8,3.32.89,5.43,26.57,8.08,52.34,7.58,77.2,26.44,6.01,51.3,13.59,73.98,23.34,1.61.51,1.73,2.75.18,3.43Z"/>
      <path class="cls-1" d="M163.29,130.57c-.02-.06-.03-.13-.01-.2l6.09-22.51c.55-2.02-1.05-3.99-3.14-3.87l-23.28,1.32c-.07,0-.13-.01-.19-.05l-19.53-12.75c-1.76-1.15-4.12-.24-4.65,1.79l-5.94,22.55c-.02.06-.05.12-.11.16l-18.16,14.63c-1.63,1.32-1.5,3.84.27,4.98l19.61,12.62c.06.04.1.09.12.15l8.3,21.79c.75,1.96,3.19,2.61,4.82,1.29l18.06-14.76c.05-.04.12-.07.18-.07l23.29-1.16c2.09-.1,3.47-2.23,2.71-4.18l-8.45-21.74Z"/>
    </g>
  </g>
</svg>